<svg width="14" height="16" viewBox="0 0 14 16" fill="none" xmlns="http://www.w3.org/2000/svg">
<path d="M11.0574 15.12C10.1999 15.9513 9.26369 15.82 8.36244 15.4262C7.40869 15.0237 6.53369 15.0062 5.52744 15.4262C4.26744 15.9687 3.60244 15.8113 2.84994 15.12C-1.42006 10.7188 -0.790056 4.01625 4.05744 3.77125C5.23869 3.8325 6.06119 4.41875 6.75244 4.47125C7.78494 4.26125 8.77369 3.6575 9.87619 3.73625C11.1974 3.84125 12.1949 4.36625 12.8512 5.31125C10.1212 6.9475 10.7687 10.5438 13.2712 11.55C12.7724 12.8625 12.1249 14.1663 11.0487 15.1288L11.0574 15.12ZM6.66494 3.71875C6.53369 1.7675 8.11744 0.1575 9.93744 0C10.1912 2.2575 7.88994 3.9375 6.66494 3.71875Z" fill="white"/>
</svg>
