<svg width="48" height="48" viewBox="0 0 48 48" fill="none" xmlns="http://www.w3.org/2000/svg">
<path d="M0 10C0 4.47716 4.47715 0 10 0H37.9844C43.5073 0 47.9844 4.47715 47.9844 10V37.9844C47.9844 43.5073 43.5073 47.9844 37.9844 47.9844H10C4.47716 47.9844 0 43.5073 0 37.9844V10Z" fill="url(#paint0_linear_3410_1765)"/>
<path d="M33.9896 23.9921H31.5104C31.0735 23.9912 30.6483 24.1334 30.2999 24.3969C29.9515 24.6605 29.699 25.031 29.581 25.4516L27.2318 33.8089C27.2167 33.8608 27.1851 33.9064 27.1418 33.9389C27.0986 33.9713 27.0459 33.9889 26.9919 33.9889C26.9378 33.9889 26.8852 33.9713 26.8419 33.9389C26.7987 33.9064 26.7671 33.8608 26.752 33.8089L21.2337 14.1753C21.2186 14.1234 21.187 14.0778 21.1438 14.0453C21.1005 14.0129 21.0479 13.9954 20.9938 13.9954C20.9397 13.9954 20.8871 14.0129 20.8439 14.0453C20.8006 14.0778 20.769 14.1234 20.7539 14.1753L18.4047 22.5326C18.2872 22.9516 18.0362 23.3208 17.6898 23.5843C17.3434 23.8477 16.9205 23.9909 16.4853 23.9921H13.9961" stroke="white" stroke-width="2.49919" stroke-linecap="round" stroke-linejoin="round"/>
<defs>
<linearGradient id="paint0_linear_3410_1765" x1="23.9922" y1="0" x2="23.9922" y2="47.9844" gradientUnits="userSpaceOnUse">
<stop stop-color="#4FC3F7"/>
<stop offset="1" stop-color="#E91E63"/>
</linearGradient>
</defs>
</svg>
