<svg width="48" height="48" viewBox="0 0 48 48" fill="none" xmlns="http://www.w3.org/2000/svg">
<path d="M0 14C0 6.26802 6.26801 0 14 0H33.9844C41.7164 0 47.9844 6.26801 47.9844 14V33.9844C47.9844 41.7164 41.7164 47.9844 33.9844 47.9844H14C6.26802 47.9844 0 41.7164 0 33.9844V14Z" fill="url(#paint0_linear_3012_1030)"/>
<path d="M33.9798 23.9921H31.5006C31.0637 23.9912 30.6386 24.1334 30.2902 24.3969C29.9417 24.6605 29.6892 25.031 29.5713 25.4516L27.222 33.8089C27.2069 33.8608 27.1753 33.9064 27.1321 33.9389C27.0888 33.9713 27.0362 33.9889 26.9821 33.9889C26.928 33.9889 26.8754 33.9713 26.8322 33.9389C26.7889 33.9064 26.7573 33.8608 26.7422 33.8089L21.224 14.1753C21.2088 14.1234 21.1773 14.0778 21.134 14.0453C21.0907 14.0129 21.0381 13.9954 20.9841 13.9954C20.93 13.9954 20.8774 14.0129 20.8341 14.0453C20.7908 14.0778 20.7593 14.1234 20.7441 14.1753L18.3949 22.5326C18.2774 22.9516 18.0264 23.3208 17.68 23.5843C17.3336 23.8477 16.9107 23.9909 16.4755 23.9921H13.9863" stroke="white" stroke-width="1.99935" stroke-linecap="round" stroke-linejoin="round"/>
<defs>
<linearGradient id="paint0_linear_3012_1030" x1="0" y1="0" x2="47.9844" y2="47.9844" gradientUnits="userSpaceOnUse">
<stop stop-color="#AD46FF"/>
<stop offset="1" stop-color="#F6339A"/>
</linearGradient>
</defs>
</svg>
